<?xml version="1.0" encoding="UTF-8"?>
<svg version="1.1" viewBox="0 0 102 83" xmlns="http://www.w3.org/2000/svg">
 <style type="text/css">.st0{fill:#ECC19C;stroke:#000;}
	.st1{fill:none;stroke:#000;}
	.st2{fill:none;stroke:#000;stroke-linecap:round;}
	.st3{fill:#F2F2F2;stroke:#000;}
	.st4{fill:#42210B;stroke:#000;}
	.st5{fill:#9E005D;}</style>
 <path class="st0" d="m51.6 54.2c0.9 0.1 5 5.6-0.3 6.5s-4.1-7 0.3-6.5z"/>
 <path class="st0" d="m6.3 20.3s23.3 7.5 24.8 8.3 11.5-4.1 16.3-4.1 10.5 6.4 14.5 6.4 31.3-8 31.3-8v23.1l-18.3 3.5-1.1-4.6-4.6 1.2c0.7 0.6 1.1 3.2-0.2 4s-2.5 0.3-3.2 0.3c0.9 1.5 1.2 3.1-0.3 4.6s-3.1 0.2-4 0c0.4 0.9 0.8 3-0.8 3.8s-17.3-8.1-25.3-9.3-29.1-6-29.1-6v-23.2z"/>
 <path class="st1" d="m45.8 24.5c-0.9 0.9-10.5 10.3-11.1 10.8-0.6 0.6-1 2.2 0.9 3.7s3.3 0.1 4.4-1c0.8-0.8 4.6-4 6.4-5.5 0.6-0.5 1.5-0.6 2.2-0.1l20.5 13.7"/>
 <line class="st2" x1="54.3" x2="65.8" y1="43.5" y2="50.5"/>
 <line class="st2" x1="51" x2="61.4" y1="48" y2="55.1"/>
 <polygon class="st3" points="69.7 27.7 74.8 50.6 88.5 47.9 82.7 24.5"/>
 <polygon class="st4" points="83 25.6 88.5 46.9 93 46 93 22.8"/>
 <polygon class="st3" points="19.8 23.4 13 46.8 24.6 49.2 31.2 26.8"/>
 <polygon class="st4" points="6.3 20.3 19.4 24.5 13.5 45.1 6.3 43.5"/>
 <path class="st0" d="m30.5 48.6c-0.8 2-3 6.9 0 7.5 3 0.7 2.8-2.4 3.7-4.6 0.9-2.4 0.8-5.1-0.5-5.4-1.7-0.4-2.7 1.3-3.2 2.5z"/>
 <path class="st0" d="m39.7 52.9c-0.8 2-3 6.9 0 7.5 3 0.7 2.8-2.4 3.7-4.6 0.9-2.4 0.8-5.1-0.5-5.4-1.8-0.5-2.7 1.3-3.2 2.5z"/>
 <path class="st0" d="m44.6 54.1c-0.8 2-3 6.9 0 7.5 3 0.7 2.8-2.4 3.7-4.6 0.9-2.4 0.8-5.1-0.5-5.4-1.8-0.4-2.7 1.3-3.2 2.5z"/>
 <path class="st0" d="m35.1 50.6c-0.8 2.4-3 8 0 8.8s2.8-2.9 3.7-5.4c0.9-2.9 0.8-6-0.5-6.4-1.8-0.4-2.7 1.6-3.2 3z"/>
 <path class="st5" d="m34.2 23.4c7.6 0.2 7.6-2.6 14.7-2.6s9.8 6 15 6c3.9 0 8.7-3.6 14.2-5.5-6.6-9.7-17.7-16.1-30.3-16.1-11.9 0-22.4 5.7-29 14.5 5 2.1 10.7 3.6 15.4 3.7z"/>
 <path class="st5" d="m71.5 51.5c-2 3.6-13.3 14.9-23.7 14.5s-20.2-5.5-22.4-13.8c-4.8-1.9-9.7-2.5-13-2.7 3.7 16.1 18.1 28.2 35.4 28.2 16.7 0 30.8-11.3 35-26.6-1.2 1-7.6 3.6-11.3 0.4z"/>
</svg>
