<?xml version="1.0" ?><svg height="32" id="svg8" version="1.1" viewBox="0 0 8.4666665 8.4666669" width="32" xmlns="http://www.w3.org/2000/svg" xmlns:cc="http://creativecommons.org/ns#" xmlns:dc="http://purl.org/dc/elements/1.1/" xmlns:inkscape="http://www.inkscape.org/namespaces/inkscape" xmlns:rdf="http://www.w3.org/1999/02/22-rdf-syntax-ns#" xmlns:sodipodi="http://sodipodi.sourceforge.net/DTD/sodipodi-0.dtd" xmlns:svg="http://www.w3.org/2000/svg"><defs id="defs2"/><g id="layer2"><path d="M 19 6 A 1.0000999 1.0000999 0 0 0 18 7 L 18 8 L 17 8 A 1.0000999 1.0000999 0 0 0 16 9 L 16 12 A 1.0000999 1.0000999 0 0 0 17 13 L 18 13 L 18 14 A 1.0000999 1.0000999 0 0 0 19 15 L 22 15 A 1.0000999 1.0000999 0 0 0 23 14 L 23 13 L 24 13 A 1.0000999 1.0000999 0 0 0 25 12 L 25 9 A 1.0000999 1.0000999 0 0 0 24 8 L 23 8 L 23 7 A 1.0000999 1.0000999 0 0 0 22 6 L 19 6 z M 20 8 L 21 8 L 21 9 A 1.0000999 1.0000999 0 0 0 22 10 L 23 10 L 23 11 L 22 11 A 1.0000999 1.0000999 0 0 0 21 12 L 21 13 L 20 13 L 20 12 A 1.0000999 1.0000999 0 0 0 19 11 L 18 11 L 18 10 L 19 10 A 1.0000999 1.0000999 0 0 0 20 9 L 20 8 z M 2.9003906 14.003906 A 1.0001 1.0001 0 0 0 2 15 L 2 25.001953 A 1.0001 1.0001 0 0 0 2.9960938 25.998047 L 6.9980469 25.998047 A 1.0001 1.0001 0 0 0 8.0019531 25.001953 L 18.779297 25.001953 A 1.0001 1.0001 0 0 0 19.134766 24.935547 L 26.929688 21.953125 C 28.877186 21.337689 30 19.77545 30 18.248047 C 30 17.484345 29.659002 16.669821 28.945312 16.21875 C 28.231623 15.767679 27.297968 15.74111 26.324219 16.048828 A 1.0001 1.0001 0 0 0 26.271484 16.0625 L 18.595703 19.001953 L 17.074219 19.001953 C 17.143341 18.615902 17.293153 18.242674 17.228516 17.841797 C 17.118171 17.157446 16.809385 16.458064 16.240234 15.908203 C 15.671084 15.358342 14.833543 15 13.871094 15 L 8.0019531 15 A 1.0001 1.0001 0 0 0 6.9980469 14.003906 L 2.9960938 14.003906 A 1.0001 1.0001 0 0 0 2.9003906 14.003906 z M 4.0019531 15.996094 L 6.0019531 15.996094 L 6.0019531 19.001953 L 6.0019531 19.998047 L 6.0019531 23.998047 L 4.0019531 23.998047 L 4.0019531 15.996094 z M 8.0019531 17 L 13.871094 17 C 14.380645 17 14.644402 17.147515 14.851562 17.347656 C 15.058722 17.547794 15.201059 17.844507 15.251953 18.160156 C 15.302848 18.475803 15.246412 18.789682 15.177734 18.927734 C 15.148653 18.986176 15.149496 18.995795 15.152344 19.001953 L 10.998047 19.001953 A 1.0002459 1.0002459 0 0 0 10.998047 21.001953 L 15.162109 21.001953 L 18.779297 21.001953 A 1.0001 1.0001 0 0 0 19.134766 20.935547 L 26.929688 17.953125 C 27.538148 17.760842 27.795632 17.859277 27.873047 17.908203 C 27.950463 17.957133 28 18.011747 28 18.248047 C 28 18.720644 27.54114 19.664264 26.324219 20.048828 A 1.0001 1.0001 0 0 0 26.271484 20.064453 L 18.595703 23.001953 L 8.0019531 23.001953 L 8.0019531 19.998047 L 8.0019531 17 z " id="rect1021" style="color:#000000;font-style:normal;font-variant:normal;font-weight:normal;font-stretch:normal;font-size:medium;line-height:normal;font-family:sans-serif;font-variant-ligatures:normal;font-variant-position:normal;font-variant-caps:normal;font-variant-numeric:normal;font-variant-alternates:normal;font-feature-settings:normal;text-indent:0;text-align:start;text-decoration:none;text-decoration-line:none;text-decoration-style:solid;text-decoration-color:#000000;letter-spacing:normal;word-spacing:normal;text-transform:none;writing-mode:lr-tb;direction:ltr;text-orientation:mixed;dominant-baseline:auto;baseline-shift:baseline;text-anchor:start;white-space:normal;shape-padding:0;clip-rule:nonzero;display:inline;overflow:visible;visibility:visible;opacity:1;isolation:auto;mix-blend-mode:normal;color-interpolation:sRGB;color-interpolation-filters:linearRGB;solid-color:#000000;solid-opacity:1;vector-effect:none;fill:#000000;fill-opacity:1;fill-rule:nonzero;stroke:none;stroke-width:1.99999988;stroke-linecap:round;stroke-linejoin:round;stroke-miterlimit:4;stroke-dasharray:none;stroke-dashoffset:0;stroke-opacity:1;paint-order:normal;color-rendering:auto;image-rendering:auto;shape-rendering:auto;text-rendering:auto;enable-background:accumulate" transform="scale(0.26458333)"/></g></svg>