<?xml version="1.0" encoding="UTF-8"?>
<svg width="90" height="90" version="1.1" viewBox="0 0 8.4667 8.4667" xmlns="http://www.w3.org/2000/svg">
<path transform="scale(.26458)" d="m19 6a1.0001 1.0001 0 0 0-1 1v1h-1a1.0001 1.0001 0 0 0-1 1v3a1.0001 1.0001 0 0 0 1 1h1v1a1.0001 1.0001 0 0 0 1 1h3a1.0001 1.0001 0 0 0 1-1v-1h1a1.0001 1.0001 0 0 0 1-1v-3a1.0001 1.0001 0 0 0-1-1h-1v-1a1.0001 1.0001 0 0 0-1-1h-3zm1 2h1v1a1.0001 1.0001 0 0 0 1 1h1v1h-1a1.0001 1.0001 0 0 0-1 1v1h-1v-1a1.0001 1.0001 0 0 0-1-1h-1v-1h1a1.0001 1.0001 0 0 0 1-1v-1zm-17.1 6.0039a1.0001 1.0001 0 0 0-0.90039 0.99609v10.002a1.0001 1.0001 0 0 0 0.99609 0.99609h4.002a1.0001 1.0001 0 0 0 1.0039-0.99609h10.777a1.0001 1.0001 0 0 0 0.35547-0.066406l7.7949-2.9824c1.9475-0.61544 3.0703-2.1777 3.0703-3.7051 0-0.7637-0.341-1.5782-1.0547-2.0293-0.71369-0.45107-1.6473-0.47764-2.6211-0.16992a1.0001 1.0001 0 0 0-0.052735 0.013672l-7.6758 2.9395h-1.5215c0.069122-0.38605 0.21893-0.75928 0.1543-1.1602-0.11034-0.68435-0.41913-1.3837-0.98828-1.9336-0.56915-0.54986-1.4067-0.9082-2.3691-0.9082h-5.8691a1.0001 1.0001 0 0 0-1.0039-0.99609h-4.002a1.0001 1.0001 0 0 0-0.095703 0zm1.1016 1.9922h2v3.0059 0.99609 4h-2v-8.002zm4 1.0039h5.8691c0.50955 0 0.77331 0.14752 0.98047 0.34766 0.20716 0.20014 0.3495 0.49685 0.40039 0.8125 0.050895 0.31565-0.005541 0.62953-0.074219 0.76758-0.029081 0.058442-0.028238 0.068061-0.02539 0.074219h-4.1543a1.0002 1.0002 0 0 0 0 2h4.1641 3.6172a1.0001 1.0001 0 0 0 0.35547-0.066406l7.7949-2.9824c0.60846-0.19228 0.86594-0.093848 0.94336-0.044922 0.077416 0.04893 0.12695 0.10354 0.12695 0.33984 0 0.4726-0.45886 1.4162-1.6758 1.8008a1.0001 1.0001 0 0 0-0.052735 0.015625l-7.6758 2.9375h-10.594v-3.0039-2.998z" color="#000000" color-rendering="auto" dominant-baseline="auto" image-rendering="auto" shape-rendering="auto" solid-color="#000000" style="font-feature-settings:normal;font-variant-alternates:normal;font-variant-caps:normal;font-variant-ligatures:normal;font-variant-numeric:normal;font-variant-position:normal;isolation:auto;mix-blend-mode:normal;paint-order:normal;shape-padding:0;text-decoration-color:#000000;text-decoration-line:none;text-decoration-style:solid;text-indent:0;text-orientation:mixed;text-transform:none;white-space:normal"/>
</svg>
